<svg width="37" height="25" viewBox="0 0 37 25" fill="none" xmlns="http://www.w3.org/2000/svg">
<path d="M8.49817 19.7467C16.3517 22.7249 23.035 23.305 30.6086 18.6693C30.5531 18.7503 29.055 20.907 25.1153 22.0123C25.9476 23.1176 27.0851 24.3847 27.0851 24.3847C29.6099 24.3847 32.0791 23.6837 34.2153 22.3358C35.88 21.2574 36.8232 19.3972 36.629 17.4562C36.2961 14.1401 35.4915 10.905 34.2431 7.80472C32.6617 3.76083 28.8608 0.957017 24.4495 0.552596C24.061 0.525624 23.7836 0.525624 23.6172 0.525624L23.1733 0.956937C28.2504 2.35884 30.7752 4.54254 30.8306 4.62346C23.0345 0.795184 13.8236 0.74132 5.97196 4.4617C5.97196 4.4617 8.46893 2.06231 13.9899 0.795184L13.657 0.47168C13.0744 0.47168 12.5195 0.525624 11.9369 0.60646C7.85853 1.28044 4.44606 4.00334 2.9756 7.7507C1.69936 10.9858 0.867061 14.3827 0.561899 17.8335C0.39544 19.6667 1.28325 21.4731 2.8369 22.5245C4.88993 23.8455 7.33139 24.5464 9.80061 24.5464C9.80061 24.5464 10.7994 23.2793 11.7982 22.1471C8.05274 21.0687 6.52685 18.9119 6.49909 18.831L7.20397 19.1808C7.62535 19.39 8.05735 19.5795 8.49817 19.7467ZM12.8525 17.4022C11.0491 17.3483 9.63415 15.8655 9.68966 14.0862C9.74518 12.4147 11.1324 11.0667 12.8525 11.0128C14.6559 11.0667 16.0708 12.5495 16.0153 14.3288C15.932 16.0004 14.5726 17.3483 12.8525 17.4022ZM24.172 17.4022C22.3686 17.3483 20.9536 15.8655 21.0092 14.0862C21.0647 12.4147 22.4519 11.0667 24.172 11.0128C25.9753 11.0667 27.3903 12.5495 27.3348 14.3288C27.2794 16.0004 25.8921 17.3483 24.172 17.4022Z" fill="white"/>
</svg>
