<svg width="37" height="37" viewBox="0 0 37 37" fill="none" xmlns="http://www.w3.org/2000/svg">
<path fill-rule="evenodd" clip-rule="evenodd" d="M10.7409 0.453125H27.0539C32.5126 0.453125 36.9535 4.89407 36.9535 10.3528V26.6657C36.9535 32.1243 32.5126 36.5653 27.0539 36.5653H10.7409C5.28226 36.5653 0.841309 32.1244 0.841309 26.6657V10.3528C0.841309 4.89407 5.28226 0.453125 10.7409 0.453125ZM8.99257 18.5092C8.99257 23.9708 13.4358 28.4141 18.8974 28.4141C24.3589 28.4141 28.8023 23.9707 28.8023 18.5092C28.8023 13.0477 24.3589 8.60445 18.8974 8.60445C13.4358 8.60445 8.99257 13.0476 8.99257 18.5092ZM26.3854 8.01199C26.3854 9.67132 27.7353 11.0213 29.3947 11.0213C31.054 11.0213 32.404 9.67124 32.404 8.01192C32.404 6.35259 31.054 5.00262 29.3947 5.00262C27.7353 5.00262 26.3854 6.35266 26.3854 8.01199ZM29.3946 7.13525C28.9112 7.13525 28.5179 7.52861 28.5179 8.01196C28.5179 8.49531 28.9112 8.88867 29.3946 8.88867C29.878 8.88867 30.2713 8.49538 30.2713 8.01196C30.2713 7.52854 29.878 7.13525 29.3946 7.13525ZM18.8972 10.7368C14.6116 10.7368 11.125 14.2234 11.125 18.5091C11.125 22.7947 14.6116 26.2814 18.8972 26.2814C23.1829 26.2814 26.6696 22.7948 26.6696 18.5091C26.6696 14.2235 23.1829 10.7368 18.8972 10.7368Z" fill="white"/>
</svg>
