<svg width="37" height="30" viewBox="0 0 37 30" fill="none" xmlns="http://www.w3.org/2000/svg">
<path d="M35.781 3.78816C34.9786 4.12678 34.1457 4.39392 33.2911 4.58732C34.2328 3.73563 34.9408 2.67033 35.3403 1.48127C35.4543 1.14182 35.0669 0.848281 34.7449 1.03003C33.5559 1.70124 32.2752 2.20476 30.9382 2.52679C30.8607 2.54548 30.7806 2.55495 30.7003 2.55495C30.4568 2.55495 30.22 2.46889 30.0338 2.31269C28.6114 1.11953 26.7819 0.462402 24.8825 0.462402C24.0606 0.462402 23.2308 0.584325 22.416 0.824818C19.8916 1.57001 17.9437 3.55186 17.3326 5.99702C17.1033 6.91416 17.0413 7.83214 17.148 8.7254C17.1602 8.82805 17.1092 8.89969 17.0778 8.9333C17.0226 8.9922 16.9443 9.02597 16.8631 9.02597C16.854 9.02597 16.8447 9.02556 16.8354 9.02472C11.3095 8.53611 6.32652 6.00238 2.80428 1.89036C2.62467 1.68062 2.28023 1.70635 2.13707 1.94005C1.44733 3.06627 1.08282 4.35437 1.08282 5.6651C1.08282 7.67385 1.93078 9.56687 3.40369 10.9469C2.78429 10.8071 2.18479 10.587 1.62791 10.2926C1.35849 10.1502 1.027 10.3333 1.02321 10.6266C0.984649 13.6107 2.82039 16.266 5.57039 17.4617C5.51501 17.4629 5.45963 17.4635 5.40416 17.4635C4.96825 17.4635 4.52688 17.4235 4.09247 17.3444C3.78906 17.2893 3.53417 17.5632 3.62838 17.8432C4.52098 20.4954 6.92039 22.4504 9.79172 22.8942C7.40869 24.4167 4.63359 25.2198 1.74527 25.2198L0.844834 25.2193C0.567404 25.2193 0.332763 25.3914 0.262063 25.6472C0.192419 25.899 0.320701 26.1648 0.557278 26.2957C3.81195 28.0984 7.52438 29.0512 11.2948 29.0512C14.5952 29.0512 17.6824 28.4278 20.4708 27.1986C23.027 26.0716 25.2859 24.4606 27.1847 22.4104C28.9535 20.5005 30.3367 18.2958 31.2957 15.8575C32.2099 13.5333 32.6931 11.0532 32.6931 8.68551V8.57272C32.693 8.19254 32.8736 7.83482 33.1888 7.59131C34.3849 6.66705 35.4265 5.57904 36.2845 4.35756C36.511 4.03503 36.1538 3.6308 35.781 3.78816Z" fill="white"/>
</svg>
