<svg width="24" height="24" viewBox="0 0 24 24" fill="none" xmlns="http://www.w3.org/2000/svg">
<path d="M5.28765 16.8101C10.5071 18.7894 14.9488 19.1749 19.9822 16.0941C19.9453 16.1479 18.9496 17.5812 16.3313 18.3158C16.8845 19.0504 17.6405 19.8925 17.6405 19.8925C19.3184 19.8925 20.9594 19.4266 22.3792 18.5308C23.4855 17.8141 24.1124 16.5778 23.9833 15.2878C23.762 13.084 23.2273 10.9339 22.3976 8.87351C21.3466 6.18596 18.8205 4.32255 15.8888 4.05378C15.6307 4.03585 15.4463 4.03585 15.3357 4.03585L15.0407 4.3225C18.4149 5.2542 20.0929 6.70548 20.1297 6.75925C14.9484 4.215 8.82688 4.1792 3.60873 6.65176C3.60873 6.65176 5.26821 5.05713 8.93745 4.215L8.7162 4C8.32897 4 7.96019 4.03585 7.57302 4.08957C4.86254 4.5375 2.59463 6.34713 1.61737 8.83761C0.769182 10.9877 0.21604 13.2452 0.0132303 15.5386C-0.0973981 16.757 0.492638 17.9574 1.52519 18.6562C2.88962 19.5341 4.51221 20 6.15324 20C6.15324 20 6.81701 19.1579 7.48084 18.4054C4.99162 17.6887 3.97751 16.2553 3.95907 16.2015L4.42753 16.434C4.70757 16.573 4.99468 16.699 5.28765 16.8101ZM8.1815 15.252C6.98298 15.2161 6.04261 14.2307 6.07951 13.0481C6.1164 11.9373 7.03832 11.0414 8.1815 11.0056C9.38002 11.0414 10.3204 12.0269 10.2835 13.2094C10.2282 14.3203 9.32468 15.2162 8.1815 15.252ZM15.7044 15.252C14.5059 15.2161 13.5655 14.2307 13.6024 13.0481C13.6393 11.9373 14.5612 11.0414 15.7044 11.0056C16.9029 11.0414 17.8433 12.0269 17.8064 13.2094C17.7696 14.3203 16.8476 15.2162 15.7044 15.252Z" fill="white"/>
</svg>
