<svg width="24" height="24" viewBox="0 0 24 24" fill="none" xmlns="http://www.w3.org/2000/svg">
<path fill-rule="evenodd" clip-rule="evenodd" d="M6.57923 0H17.4208C21.0486 0 24 2.95144 24 6.57928V17.4208C24 21.0486 21.0486 24 17.4208 24H6.57923C2.95144 24 0 21.0486 0 17.4208V6.57928C0 2.95144 2.95144 0 6.57923 0ZM5.4173 12C5.4173 15.6298 8.37023 18.5828 12 18.5828C15.6297 18.5828 18.5828 15.6297 18.5828 12C18.5828 8.37028 15.6297 5.41734 12 5.41734C8.37028 5.41734 5.4173 8.37023 5.4173 12ZM16.9765 5.02359C16.9765 6.12637 17.8737 7.02356 18.9765 7.02356C20.0792 7.02356 20.9764 6.12633 20.9764 5.02355C20.9764 3.92077 20.0792 3.02358 18.9765 3.02358C17.8737 3.02358 16.9765 3.92081 16.9765 5.02359ZM18.9765 4.44089C18.6552 4.44089 18.3938 4.70232 18.3938 5.02355C18.3938 5.34478 18.6552 5.60621 18.9765 5.60621C19.2978 5.60621 19.5591 5.34483 19.5591 5.02355C19.5591 4.70227 19.2978 4.44089 18.9765 4.44089ZM12 6.83452C9.15174 6.83452 6.83452 9.15174 6.83452 12C6.83452 14.8482 9.15174 17.1654 12 17.1654C14.8482 17.1654 17.1654 14.8482 17.1654 12C17.1654 9.15178 14.8482 6.83452 12 6.83452Z" fill="white"/>
</svg>
