<svg width="24" height="24" viewBox="0 0 24 24" fill="none" xmlns="http://www.w3.org/2000/svg">
<path d="M23.6183 4.21029C23.0851 4.43533 22.5315 4.61287 21.9635 4.74141C22.5894 4.17537 23.06 3.46738 23.3254 2.67714C23.4012 2.45154 23.1437 2.25645 22.9297 2.37725C22.1395 2.82332 21.2884 3.15797 20.3998 3.37198C20.3483 3.3844 20.2951 3.3907 20.2417 3.3907C20.0799 3.3907 19.9225 3.3335 19.7988 3.2297C18.8534 2.43672 17.6375 2 16.3752 2C15.829 2 15.2775 2.08103 14.736 2.24086C13.0582 2.73611 11.7637 4.05324 11.3576 5.67828C11.2052 6.28781 11.164 6.8979 11.2349 7.49156C11.243 7.55978 11.2091 7.60739 11.1882 7.62972C11.1516 7.66887 11.0995 7.69132 11.0455 7.69132C11.0395 7.69132 11.0333 7.69104 11.0271 7.69048C7.35466 7.36575 4.04298 5.68185 1.70211 2.94902C1.58274 2.80962 1.35383 2.82672 1.25868 2.98204C0.800282 3.73052 0.558032 4.58659 0.558032 5.45769C0.558032 6.7927 1.12158 8.0508 2.10047 8.96796C1.68882 8.87507 1.2904 8.72877 0.920295 8.53313C0.741241 8.43846 0.520934 8.56014 0.518418 8.75506C0.492788 10.7383 1.71282 12.503 3.54046 13.2977C3.50365 13.2985 3.46685 13.2989 3.42998 13.2989C3.14028 13.2989 2.84694 13.2723 2.55823 13.2197C2.35659 13.1831 2.18719 13.3651 2.2498 13.5512C2.84302 15.3139 4.43766 16.6131 6.34593 16.9081C4.76218 17.9199 2.91786 18.4537 0.998295 18.4537L0.399867 18.4533C0.215488 18.4533 0.0595473 18.5677 0.0125601 18.7377C-0.0337248 18.9051 0.0515308 19.0817 0.208759 19.1687C2.37181 20.3668 4.83907 21 7.34489 21C9.53831 21 11.5901 20.5857 13.4432 19.7687C15.1421 19.0198 16.6433 17.9491 17.9052 16.5866C19.0808 15.3173 20.0001 13.852 20.6374 12.2315C21.2449 10.6868 21.5661 9.03863 21.5661 7.46505V7.39009C21.566 7.13742 21.6861 6.89968 21.8956 6.73785C22.6905 6.12358 23.3827 5.4005 23.9529 4.5887C24.1035 4.37435 23.866 4.1057 23.6183 4.21029Z" fill="white"/>
</svg>
